<svg xmlns="http://www.w3.org/2000/svg" width="512" height="512" viewBox="0 0 512 512">
  <defs>
    <linearGradient id="g1" x1="0" x2="1" y1="0" y2="1">
      <stop offset="0%" stop-color="#7c3aed"/>
      <stop offset="100%" stop-color="#2563eb"/>
    </linearGradient>
  </defs>
  <rect width="512" height="512" rx="88" fill="url(#g1)"/>
  <g transform="translate(90,88) scale(0.65)">
    <path d="M162.5 32c-62.9 0-114 51.1-114 114s51.1 114 114 114c21.9 0 42.2-6.2 59.6-17.3 4.4-2.8 6.1-8.6 3.4-13-2.8-4.4-8.6-6.1-13-3.4-14.2 9-31.3 13.7-49.9 13.7-54.6 0-99-44.4-99-99s44.4-99 99-99 99 44.4 99 99v36c0 8.8 7.2 16 16 16s16-7.2 16-16v-36c0-62.9-51.1-114-114-114z" fill="#fff" opacity="0.95"/>
    <path d="M330 198c-8.8 0-16 7.2-16 16v62c0 54.6-44.4 99-99 99-18.6 0-35.7-4.7-49.9-13.7-4.4-2.8-10.2-1.1-13 3.4-2.8 4.4-1.1 10.2 3.4 13 18.2 11.5 40.3 17.3 62.9 17.3 62.9 0 114-51.1 114-114v-62c0-8.8-7.2-16-16-16z" fill="#ffffff" opacity="0.12"/>
  </g>
  <text x="50%" y="86%" font-family="Inter, Arial, sans-serif" font-weight="700" font-size="72" fill="#ffffff" text-anchor="middle">Genesis</text>
</svg>
